# xmcd
# Copyright (C) 1995-1998 Ti Kan
#
# Track frame offsets:
#       150
#       23711
#       36171
#       57618
#       70071
#       88950
#       114045
#       133657
#       145102
#       169127
#       187696
#       199769
#       215668
#       231754
#
# Disc length: 3294 seconds
#
# Revision: 0
# Processed by: cddbd v1.5.1PL0 Copyright (c) Steve Scherf et al.
# Submitted via: CD-Transfer v1.0
#
DISCID=c40cdc0e
DTITLE=Kliby und Caroline - Urs Kliby
DYEAR=05
DGENRE=
TTITLE0=Caroline an der Party
TTITLE1=Bitte bätti - bitti bätt (Lied)
TTITLE2=SMS und E-Mail
TTITLE3=s'Händy, es tschädered (Lied)
TTITLE4=Hundere und andere Tiere
TTITLE5=Komische Nachbarn
TTITLE6=Schule und Kollegen
TTITLE7=Di Grosse und di Chliine (Lied)
TTITLE8=Tante Olga und Onkel Hans
TTITLE9=Onkel Hans und Tante Olga
TTITLE10=Grind denn abe und denn seckle (Lied)
TTITLE11=Ziemlich frech...
TTITLE12=Goht's no!
TTITLE13=Hesch du hütt scho glached? (Lied)
EXTD=
EXTT0=
EXTT1=
EXTT2=
EXTT3=
EXTT4=
EXTT5=
EXTT6=
EXTT7=
EXTT8=
EXTT9=
EXTT10=
EXTT11=
EXTT12=
EXTT13=
PLAYORDER=
